<?xml version="1.0" ?><!DOCTYPE svg  PUBLIC '-//W3C//DTD SVG 1.1//EN'  'http://www.w3.org/Graphics/SVG/1.1/DTD/svg11.dtd'><svg enable-background="new 0 0 100 100" version="1.1" viewBox="0 0 100 100" xml:space="preserve" xmlns="http://www.w3.org/2000/svg" xmlns:xlink="http://www.w3.org/1999/xlink"><g id="GRID"/><g id="Layer_2"><path d="M62.3,20h-10v-3.8c0-0.8-0.7-1.5-1.5-1.5H35.3c-0.8,0-1.5,0.7-1.5,1.5V20h-10c-0.8,0-1.5,0.7-1.5,1.5v53.8   c0,3.7,3,6.7,6.7,6.7h28.3c3.7,0,6.7-3,6.7-6.7V21.5C63.8,20.7,63.1,20,62.3,20z M36.8,17.7h12.5v2.1H36.8V17.7z M55.1,23v2.3H31   V23H55.1z M60.8,75.3c0,2-1.6,3.7-3.7,3.7h-3.3l7-7V75.3z M60.8,67.7L49.5,79H28.9c-2,0-3.7-1.7-3.7-3.7V23H28v3.8   c0,0.8,0.7,1.5,1.5,1.5h27.1c0.8,0,1.5-0.7,1.5-1.5V23h2.7V67.7z"/><path d="M80.6,20h-3v-5.8c0-0.8-0.7-1.5-1.5-1.5h-7.8c-0.8,0-1.5,0.7-1.5,1.5V71c0,0.2,0,0.3,0.1,0.5L70.6,83v3.1   c0,0.8,0.7,1.5,1.5,1.5s1.5-0.7,1.5-1.5V83l3.8-11.5c0-0.2,0.1-0.3,0.1-0.5V23h1.5v16.4c0,0.8,0.7,1.5,1.5,1.5   c0.8,0,1.5-0.7,1.5-1.5V21.7c0,0,0-0.1,0-0.1c0,0,0-0.1,0-0.1C82.1,20.7,81.4,20,80.6,20z M72.1,78l-2-6.1h4.1L72.1,78z M74.6,68.9   h-4.8V23h4.8V68.9z M74.6,20h-4.8v-4.3h4.8V20z"/><path d="M51.9,68.1H34.7c-0.8,0-1.5,0.7-1.5,1.5s0.7,1.5,1.5,1.5h17.2c0.8,0,1.5-0.7,1.5-1.5S52.7,68.1,51.9,68.1z"/><path d="M57.5,42.8c-0.1-0.4-0.3-0.7-0.6-1l-4.4-3.1c-0.7-0.5-1.6-0.3-2.1,0.3l-9.2,12.6l-6.2-6c-0.6-0.5-1.5-0.6-2,0l-4,3.6   c-0.3,0.3-0.5,0.7-0.5,1.1c0,0.4,0.1,0.8,0.4,1.1l11.8,12.3c0.3,0.3,0.7,0.5,1.1,0.5c0,0,0.1,0,0.1,0c0.4,0,0.9-0.3,1.1-0.6   l14.2-19.6C57.5,43.6,57.6,43.2,57.5,42.8z M32.2,50.4l1.8-1.6l6.4,6.2c0.3,0.3,0.7,0.4,1.2,0.4c0.4,0,0.8-0.3,1.1-0.6L52,42   l1.9,1.3L41.7,60.3L32.2,50.4z"/></g></svg>